<svg id="Calque_1" data-name="Calque 1" xmlns="http://www.w3.org/2000/svg" viewBox="0 0 113.79 56.11"><defs><style>.cls-1{opacity:0.2;}.cls-2{fill:#732b11;}.cls-3{fill:#f3d7ae;}.cls-4{fill:#f0e7d9;}.cls-5{fill:#fff;}.cls-6,.cls-7{fill:none;stroke-miterlimit:10;}.cls-6{stroke:#834313;}.cls-7{stroke:#732b11;}.cls-8{fill:#fcc04e;}.cls-9{fill:#f2ac38;}.cls-10{fill:#fedaa4;}</style></defs><g class="cls-1"><ellipse class="cls-2" cx="56.89" cy="38.68" rx="56.89" ry="17.44"/></g><ellipse class="cls-3" cx="56.85" cy="34.05" rx="54.78" ry="18.91"/><path class="cls-2" d="M306.22,383.59c30,0,54.29,8.24,54.29,18.41s-24.31,18.41-54.29,18.41-54.28-8.25-54.28-18.41,24.3-18.41,54.28-18.41m0-1c-31,0-55.28,8.52-55.28,19.41s24.28,19.41,55.28,19.41,55.29-8.53,55.29-19.41-24.29-19.41-55.29-19.41Z" transform="translate(-249.37 -367.94)"/><ellipse class="cls-4" cx="56.85" cy="31.1" rx="54.78" ry="18.91"/><path class="cls-2" d="M306.22,380.63c30,0,54.29,8.25,54.29,18.41s-24.31,18.41-54.29,18.41-54.28-8.24-54.28-18.41,24.3-18.41,54.28-18.41m0-1c-31,0-55.28,8.53-55.28,19.41s24.28,19.41,55.28,19.41,55.29-8.53,55.29-19.41-24.29-19.41-55.29-19.41Z" transform="translate(-249.37 -367.94)"/><path class="cls-5" d="M358,397.61c0,4-3.7,7.58-7.21,7.58s2.32-3.6,2.32-7.58-8.55-7.59-5-7.59S358,393.62,358,397.61Z" transform="translate(-249.37 -367.94)"/><ellipse class="cls-5" cx="345.75" cy="408.12" rx="2.04" ry="1.42" transform="translate(-360.9 -237.32) rotate(-18.48)"/><path class="cls-3" d="M351.68,409.1a49.66,49.66,0,0,0-8.83-4.52c-1.38-.53-2.79-1-4.21-1.43a5.67,5.67,0,0,0,2.19-4.11c0-6.48-15.49-11.73-34.61-11.73s-34.6,5.25-34.6,11.73c0,1.86,1.28,3.62,3.55,5.18-1.6.68-3.19,1.39-4.75,2.15-2.21,1.07-4.92,2.27-6.83,4.06,6.21,3.36,13.45,3.76,23,.08a23.28,23.28,0,0,1,6.06-.67,96,96,0,0,0,13.57.94c6.1,0,16.39-2.1,22-.27C334.31,412.48,343,413.77,351.68,409.1Z" transform="translate(-249.37 -367.94)"/><path class="cls-6" d="M283.59,407.86c-7.25-2.14-11.84-5.3-11.84-8.82,0-6.45,15.44-11.69,34.47-11.69S340.7,392.59,340.7,399c0,1.81-1.22,3.53-3.38,5" transform="translate(-249.37 -367.94)"/><path class="cls-7" d="M322.61,409.33a92.41,92.41,0,0,1-16.39,1.4c-2.71,0-5.35-.1-7.89-.31" transform="translate(-249.37 -367.94)"/><path class="cls-6" d="M322.61,409.33" transform="translate(-249.37 -367.94)"/><path class="cls-8" d="M264.19,411.12c-1.46-.06-3.67-5.44-3.53-11.69a22.69,22.69,0,0,1,8.77-17.69c7.53-6.06,19.54-9.13,35.69-9.13,37.27,0,44.72,15.94,45.85,25.44.75,6.32-1.08,12.13-2.33,12.43a4.65,4.65,0,0,1-1.17.13c-1.7,0-4-.65-7.14-1.55a113.94,113.94,0,0,0-34.09-4.94,106.84,106.84,0,0,0-34.06,5.26c-3.34,1-5.75,1.75-7.68,1.75Z" transform="translate(-249.37 -367.94)"/><path class="cls-2" d="M305.12,373.11c56.28,0,45.32,36.43,43.41,36.89a4.93,4.93,0,0,1-1.06.11c-5.19,0-16.71-6.49-41.23-6.49-24.91,0-36,7-41.74,7h-.29c-2.58-.11-15.37-37.51,40.91-37.51m0-1c-16.27,0-28.38,3.11-36,9.24a23.25,23.25,0,0,0-8.95,18.07c-.13,5.84,1.93,12.11,4,12.2h.33c2,0,4.44-.75,7.83-1.77a106.06,106.06,0,0,1,33.91-5.24,113.54,113.54,0,0,1,33.95,4.92c3.2.91,5.51,1.57,7.28,1.57a5.67,5.67,0,0,0,1.29-.14c1.76-.42,3.42-6.92,2.7-13-1.14-9.66-8.68-25.88-46.34-25.88Z" transform="translate(-249.37 -367.94)"/><path class="cls-9" d="M340.14,403.78A40.72,40.72,0,0,0,344.36,385c-6.15-6.56-17.82-11.84-39.24-11.84-20.76,0-32.12,5.09-38.06,11.52.7,6.13.47,12.39,3.55,18a18.67,18.67,0,0,0,1.59,2.56c.33.43.79,1.35-.85,2.06-4.2,1.82-7.24,3.37-7.14,3.37,5.63.25,16.7-7,42-7,25.95,0,37.33,7.26,42.08,6.41a36,36,0,0,1-6.82-3C339.58,406,339.83,404.43,340.14,403.78Z" transform="translate(-249.37 -367.94)"/><path class="cls-8" d="M330.41,408.5A6.8,6.8,0,0,1,328,408c-5.37-2-12.44-3-21.63-3-8.7,0-16,1-21.83,3.05a6.66,6.66,0,0,1-2.22.39c-6.08,0-10.28-8.57-12-15.9-1.34-5.6-1.53-11.83,1.05-13.14,11.65-5.91,22.71-8.78,33.81-8.78,13.22,0,25.24,3.13,33.86,8.81,3.74,2.47,3.64,10.86,1.65,17.5C338.45,404.17,334.63,408.5,330.41,408.5Z" transform="translate(-249.37 -367.94)"/><path class="cls-2" d="M305.12,371.11c12.88,0,24.84,3,33.58,8.73C345,384,340,408,330.41,408a6.44,6.44,0,0,1-2.25-.43c-5.83-2.23-13.18-3.08-21.81-3.08s-16,1-22,3.08a6.39,6.39,0,0,1-2.06.36c-9.92,0-15.57-25.65-10.76-28.09,9.33-4.74,20.71-8.73,33.58-8.73m0-1c-11.19,0-22.32,2.89-34,8.84-3,1.53-2.6,8.33-1.32,13.69,1.8,7.52,6.16,16.29,12.53,16.29a7.17,7.17,0,0,0,2.39-.42c5.73-2,13-3,21.66-3,9.12,0,16.14,1,21.45,3a7.36,7.36,0,0,0,2.61.5c4.46,0,8.45-4.46,10.7-11.93,2.09-7,2.13-15.44-1.85-18.07-8.7-5.73-20.82-8.89-34.14-8.89Z" transform="translate(-249.37 -367.94)"/><path class="cls-9" d="M284.36,407.57c6-2.12,13.41-3.08,22-3.08s16,.85,21.81,3.08a6,6,0,0,0,5.74-.69h0a15.89,15.89,0,0,1-7.75-1.73,38,38,0,0,0-4.07-1.48c4-6.59,9.62-18.55,10.1-27.36-7.78-3.44-17.14-5.2-27.06-5.2a68.89,68.89,0,0,0-24.25,4.6c1.25,10.21,6.86,21.09,11.74,27.67-4.13,1.07-9.68,4-14.15,3.21h0A6.21,6.21,0,0,0,284.36,407.57Z" transform="translate(-249.37 -367.94)"/><path class="cls-8" d="M313.91,406.47c-2.32-.18-4.86-.28-7.56-.28-1.76,0-3.48.05-5.11.14h-.13c-5.71,0-15.3-20.57-16.71-29.3-.5-3.09-.08-4.89,1.24-5.33a62,62,0,0,1,19.48-3.26,66.3,66.3,0,0,1,21.11,3.26c1.43.48,1.8,2.76,1.11,7-1.5,9.16-8.59,27.82-13.28,27.82Z" transform="translate(-249.37 -367.94)"/><path class="cls-2" d="M305.12,368.94a66.18,66.18,0,0,1,20.95,3.23c4.64,1.56-6.56,33.81-12,33.81H314c-2.41-.2-4.94-.29-7.6-.29-1.76,0-3.48.05-5.14.14h-.1c-6.47,0-20.44-31.95-15.31-33.65a61.32,61.32,0,0,1,19.32-3.24m0-1a62.37,62.37,0,0,0-19.63,3.29c-2.4.8-1.79,4.62-1.58,5.88,1.46,9.1,11.15,29.72,17.2,29.72h.16c1.62-.09,3.33-.14,5.08-.14,2.69,0,5.22.1,7.52.28h.19c5.29,0,12.4-19.82,13.77-28.24.75-4.55.29-6.93-1.44-7.51a66.74,66.74,0,0,0-21.27-3.29Z" transform="translate(-249.37 -367.94)"/><circle class="cls-9" cx="49.45" cy="31.1" r="1.48"/><circle class="cls-9" cx="52.84" cy="32.11" r="0.78"/><circle class="cls-9" cx="52.05" cy="29" r="0.63"/><circle class="cls-9" cx="45.79" cy="27.43" r="0.59"/><circle class="cls-9" cx="48.74" cy="27.43" r="1.15"/><circle class="cls-9" cx="78.8" cy="31.1" r="1.48"/><circle class="cls-9" cx="81.75" cy="39.07" r="0.78"/><circle class="cls-9" cx="80.97" cy="35.95" r="0.63"/><circle class="cls-9" cx="94.39" cy="34.89" r="0.63"/><circle class="cls-9" cx="95.02" cy="39.07" r="0.63"/><circle class="cls-9" cx="74.71" cy="34.39" r="0.59"/><circle class="cls-9" cx="77.65" cy="34.39" r="1.15"/><circle class="cls-9" cx="92.48" cy="37.25" r="1.15"/><circle class="cls-9" cx="30.02" cy="36.06" r="0.97"/><circle class="cls-9" cx="33.58" cy="36.25" r="0.78"/><circle class="cls-9" cx="31.92" cy="34.27" r="0.63"/><circle class="cls-9" cx="27.98" cy="34.08" r="0.59"/><circle class="cls-9" cx="29.77" cy="32.6" r="0.72"/><circle class="cls-9" cx="17.63" cy="39.34" r="0.97"/><circle class="cls-9" cx="13.96" cy="36.54" r="0.78"/><circle class="cls-9" cx="16.18" cy="37.17" r="0.63"/><circle class="cls-9" cx="15.33" cy="41.02" r="0.59"/><circle class="cls-9" cx="14.18" cy="39" r="0.72"/><path class="cls-9" d="M312,402.17a64.81,64.81,0,0,0-15.06.77c1.58,1.85,3.08,3,4.29,2.89,1.66-.09,3.38-.14,5.14-.14,2.66,0,5.19.09,7.6.29,1.08.08,2.39-1.15,3.77-3.18C315.81,402.53,313.9,402.31,312,402.17Z" transform="translate(-249.37 -367.94)"/><path class="cls-10" d="M305.12,371.11s18.5.6,19.61,2.95-2.12,13.12-5.86,20,2.21-15.84-.44-17.14S297.34,371.89,305.12,371.11Z" transform="translate(-249.37 -367.94)"/><ellipse class="cls-3" cx="50.92" cy="4.22" rx="1.48" ry="1.06"/><circle class="cls-10" cx="67.38" cy="30.71" r="1.4"/><path class="cls-10" d="M334,378.83s4.32,1.64,5.07,2.76,1.94,7,0,13.06c-1.33,4.14-.6-2.43-.52-7.19a11.17,11.17,0,0,0-.67-4.22C337.45,382.71,331.91,379.4,334,378.83Z" transform="translate(-249.37 -367.94)"/><path class="cls-10" d="M345.75,388.54c.35,0,2.76,2.9,3.38,8.24.24,2.11.09,7.44-.34,7.42s-.31-3.71-1.05-7.83C347.21,393.4,345.26,388.58,345.75,388.54Z" transform="translate(-249.37 -367.94)"/><path class="cls-10" d="M271.75,381.41c-.32,1,2.44.92,4.58,0,1-.43,3.7-2.54,2.45-2.58C277.37,378.79,271.92,380.87,271.75,381.41Z" transform="translate(-249.37 -367.94)"/></svg>